<?xml version="1.0" standalone="no"?>
<!DOCTYPE svg PUBLIC "-//W3C//DTD SVG 20010904//EN"
 "https://www.w3.org/TR/2001/REC-SVG-20010904/DTD/svg10.dtd">
<svg version="1.0" xmlns="https://www.w3.org/2000/svg"
 width="1152.000000pt" height="1152.000000pt" viewBox="0 0 1152.000000 1152.000000"
 preserveAspectRatio="xMidYMid meet">
<metadata>
Created by potrace 1.14, written by Peter Selinger 2001-2017
</metadata>
<g transform="translate(0.000000,1152.000000) scale(0.100000,-0.100000)"
fill="#000000" stroke="none">
<path d="M4278 9088 c-130 -226 -538 -932 -965 -1673 -286 -495 -908 -1573
-1383 -2395 -475 -822 -903 -1565 -952 -1650 -246 -424 -328 -569 -328 -574 0
-3 986 -6 2190 -6 1205 0 2190 4 2190 8 0 10 -690 1216 -713 1247 -15 20 -24
20 -737 16 l-722 -3 15 28 c13 26 409 715 1180 2056 139 241 255 434 258 430
4 -4 216 -367 471 -807 1003 -1728 1176 -2030 1523 -2655 87 -157 165 -293
174 -303 16 -16 62 -17 753 -15 l737 3 -1195 2070 c-657 1139 -1246 2158
-1308 2265 -62 107 -343 596 -626 1085 -282 490 -518 896 -525 903 -10 11 -17
5 -37 -30z"/>
<path d="M5760 9125 c0 -2 352 -611 781 -1352 1213 -2092 2211 -3815 2557
-4413 173 -300 322 -551 330 -557 12 -10 176 -13 740 -13 621 0 723 2 719 14
-5 12 -459 804 -932 1626 -62 107 -338 589 -615 1070 -481 838 -637 1108 -885
1540 -62 107 -226 393 -365 635 -139 242 -303 528 -365 635 -62 107 -183 319
-270 470 -86 151 -168 292 -181 313 l-24 37 -745 0 c-410 0 -745 -2 -745 -5z"/>
</g>
</svg>
