<?xml version="1.0" encoding="UTF-8" standalone="no"?>
<!DOCTYPE svg PUBLIC "-//W3C//DTD SVG 20010904//EN"
              "http://www.w3.org/TR/2001/REC-SVG-20010904/DTD/svg10.dtd">

<svg xmlns="http://www.w3.org/2000/svg"
     width="297.354mm" height="31.746mm"
     viewBox="0 0 843 90">
  <path id="Sélection"
        fill="black" stroke="black" stroke-width="1"
        d="M 8.16,62.00
           C 8.16,62.00 8.16,53.00 8.16,53.00
             8.00,51.11 7.89,48.06 8.16,46.32
             9.78,42.50 18.13,35.27 21.24,32.34
             21.24,32.34 28.09,25.02 28.09,25.02
             28.09,25.02 35.66,17.96 35.66,17.96
             42.58,10.89 43.40,7.06 54.00,7.00
             54.00,7.00 65.00,7.00 65.00,7.00
             65.00,7.00 51.76,21.66 51.76,21.66
             51.76,21.66 45.00,27.00 45.00,27.00
             45.00,27.00 42.00,33.00 42.00,33.00
             42.00,33.00 40.00,32.00 40.00,32.00
             40.00,32.00 28.00,47.00 28.00,47.00
             28.00,47.00 67.00,47.00 67.00,47.00
             67.00,47.00 67.00,83.00 67.00,83.00
             67.00,83.00 47.00,83.00 47.00,83.00
             47.00,83.00 47.00,62.00 47.00,62.00
             47.00,62.00 8.16,62.00 8.16,62.00 Z
           M 76.00,7.00
           C 80.60,7.00 90.93,5.58 94.00,9.00
             94.00,9.00 76.00,24.00 76.00,24.00
             76.00,24.00 76.00,7.00 76.00,7.00 Z
           M 96.00,7.00
           C 96.00,7.00 116.00,7.00 116.00,7.00
             116.00,7.00 116.00,20.00 116.00,20.00
             115.81,33.29 103.27,35.84 97.51,46.01
             95.10,50.27 96.00,60.82 96.00,66.00
             96.00,66.00 76.00,66.00 76.00,66.00
             76.00,66.00 76.00,53.00 76.00,53.00
             76.18,40.41 87.90,37.69 94.42,27.00
             96.92,22.88 96.00,12.11 96.00,7.00 Z
           M 179.00,55.00
           C 179.00,55.00 183.87,37.42 183.87,37.42
             183.87,37.42 186.85,26.00 186.85,26.00
             187.97,22.27 188.84,18.13 193.90,19.33
             197.71,20.24 198.21,24.79 199.15,28.00
             199.15,28.00 207.00,55.00 207.00,55.00
             207.00,55.00 201.00,55.00 201.00,55.00
             200.22,48.31 197.78,46.51 191.00,47.06
             189.72,47.16 188.42,47.30 187.31,48.02
             182.99,50.84 187.11,54.35 179.00,55.00 Z
           M 216.00,19.00
           C 220.40,19.00 231.39,18.27 234.81,20.31
             239.50,23.11 240.36,32.41 237.69,36.78
             236.63,38.51 235.60,38.97 234.00,40.00
             234.00,40.00 240.00,55.00 240.00,55.00
             240.00,55.00 234.00,55.00 234.00,55.00
             233.03,51.43 230.29,43.15 226.78,41.60
             225.33,40.96 223.55,41.05 222.00,41.00
             222.00,41.00 222.00,55.00 222.00,55.00
             222.00,55.00 217.00,55.00 217.00,55.00
             217.00,55.00 216.00,19.00 216.00,19.00 Z
           M 248.00,19.16
           C 248.00,19.16 267.85,19.16 267.85,19.16
             270.63,20.13 270.85,22.33 268.67,23.41
             267.20,24.13 263.70,23.99 262.00,24.00
             262.00,24.00 262.00,55.00 262.00,55.00
             262.00,55.00 257.00,55.00 257.00,55.00
             257.00,55.00 257.00,24.00 257.00,24.00
             251.74,23.98 249.04,24.88 248.00,19.16 Z
           M 280.00,19.00
           C 280.00,19.00 285.00,19.00 285.00,19.00
             285.00,19.00 285.00,55.00 285.00,55.00
             285.00,55.00 280.00,55.00 280.00,55.00
             280.00,55.00 280.00,19.00 280.00,19.00 Z
           M 299.00,19.00
           C 299.00,19.00 318.00,19.00 318.00,19.00
             316.76,26.05 309.93,24.00 304.00,24.00
             304.00,24.00 304.00,36.00 304.00,36.00
             309.02,36.00 314.07,34.49 316.00,40.00
             316.00,40.00 304.00,40.00 304.00,40.00
             304.00,40.00 304.00,55.00 304.00,55.00
             304.00,55.00 299.00,55.00 299.00,55.00
             299.00,55.00 299.00,19.00 299.00,19.00 Z
           M 329.00,19.00
           C 329.00,19.00 334.00,19.00 334.00,19.00
             334.00,19.00 334.00,55.00 334.00,55.00
             334.00,55.00 329.00,55.00 329.00,55.00
             329.00,55.00 329.00,19.00 329.00,19.00 Z
           M 370.00,43.00
           C 370.00,45.70 370.38,49.98 368.71,52.39
             365.74,56.16 352.04,56.05 348.79,52.39
             346.57,50.22 347.00,44.10 347.00,41.00
             346.99,36.29 345.92,25.18 349.03,21.76
             352.60,17.92 364.44,17.74 367.97,21.76
             370.34,24.40 369.99,27.68 370.00,31.00
             364.97,30.12 365.17,28.79 365.00,24.00
             361.62,24.00 355.10,23.20 353.02,26.31
             352.00,27.86 352.04,30.22 352.00,32.00
             351.88,38.67 349.40,52.39 359.96,50.85
             367.06,49.81 361.89,44.43 370.00,43.00 Z
           M 382.00,19.00
           C 382.00,19.00 388.00,19.00 388.00,19.00
             388.00,19.00 387.00,55.00 387.00,55.00
             387.00,55.00 382.00,55.00 382.00,55.00
             382.00,55.00 382.00,19.00 382.00,19.00 Z
           M 408.00,19.00
           C 408.00,19.00 416.00,19.00 416.00,19.00
             416.00,19.00 426.00,55.00 426.00,55.00
             420.08,54.53 419.88,52.54 419.00,47.00
             419.00,47.00 405.00,47.00 405.00,47.00
             404.12,52.54 403.92,54.53 398.00,55.00
             398.00,55.00 408.00,19.00 408.00,19.00 Z
           M 436.00,19.00
           C 440.93,19.87 440.91,21.20 441.00,26.00
             441.00,26.00 441.00,51.00 441.00,51.00
             441.00,51.00 456.00,52.00 456.00,52.00
             456.00,52.00 456.00,54.00 456.00,54.00
             456.00,54.00 436.00,55.00 436.00,55.00
             436.00,55.00 436.00,19.00 436.00,19.00 Z
           M 483.00,19.00
           C 483.00,19.00 488.00,19.00 488.00,19.00
             488.00,19.00 488.00,55.00 488.00,55.00
             488.00,55.00 483.00,55.00 483.00,55.00
             483.00,55.00 483.00,19.00 483.00,19.00 Z
           M 502.00,19.00
           C 504.85,19.51 505.24,19.16 506.00,22.00
             513.22,26.36 514.09,37.27 521.00,43.00
             521.00,43.00 521.00,19.00 521.00,19.00
             521.00,19.00 526.00,19.00 526.00,19.00
             526.00,19.00 526.00,55.00 526.00,55.00
             518.16,54.46 518.37,49.87 514.97,43.58
             514.97,43.58 507.00,31.00 507.00,31.00
             507.00,31.00 507.00,55.00 507.00,55.00
             507.00,55.00 502.00,55.00 502.00,55.00
             502.00,55.00 502.00,19.00 502.00,19.00 Z
           M 536.00,19.16
           C 536.00,19.16 555.85,19.16 555.85,19.16
             558.63,20.13 558.85,22.33 556.67,23.41
             555.20,24.13 551.70,23.99 550.00,24.00
             550.00,24.00 550.00,55.00 550.00,55.00
             550.00,55.00 545.00,55.00 545.00,55.00
             545.00,55.00 545.00,24.00 545.00,24.00
             539.74,23.98 537.04,24.88 536.00,19.16 Z
           M 568.00,19.00
           C 568.00,19.00 588.00,19.00 588.00,19.00
             586.79,26.03 578.76,24.00 573.00,24.00
             573.00,24.00 573.00,35.00 573.00,35.00
             573.00,35.00 586.00,35.00 586.00,35.00
             586.00,35.00 586.00,39.00 586.00,39.00
             586.00,39.00 573.00,39.00 573.00,39.00
             573.00,39.00 573.00,51.00 573.00,51.00
             573.00,51.00 588.00,51.00 588.00,51.00
             588.00,51.00 588.00,55.00 588.00,55.00
             588.00,55.00 568.00,55.00 568.00,55.00
             568.00,55.00 568.00,19.00 568.00,19.00 Z
           M 600.00,19.00
           C 604.93,19.87 604.91,21.20 605.00,26.00
             605.00,26.00 605.00,51.00 605.00,51.00
             605.00,51.00 618.41,52.02 618.41,52.02
             618.41,52.02 620.00,55.00 620.00,55.00
             620.00,55.00 600.00,55.00 600.00,55.00
             600.00,55.00 600.00,19.00 600.00,19.00 Z
           M 629.00,19.00
           C 629.00,19.00 634.00,19.00 634.00,19.00
             634.00,19.00 634.00,51.00 634.00,51.00
             634.00,51.00 649.00,51.00 649.00,51.00
             649.00,51.00 649.00,55.00 649.00,55.00
             649.00,55.00 629.00,55.00 629.00,55.00
             629.00,55.00 629.00,19.00 629.00,19.00 Z
           M 658.00,19.00
           C 658.00,19.00 664.00,19.00 664.00,19.00
             664.00,19.00 664.00,55.00 664.00,55.00
             664.00,55.00 658.00,55.00 658.00,55.00
             658.00,55.00 658.00,19.00 658.00,19.00 Z
           M 689.00,36.00
           C 691.28,36.00 696.66,35.64 698.40,37.02
             701.67,39.61 699.78,50.89 696.70,53.40
             694.30,55.36 689.99,55.04 687.01,54.99
             684.94,54.95 681.82,54.96 680.02,53.85
             674.37,50.37 675.92,37.03 676.00,31.00
             676.06,26.90 676.25,22.80 680.21,20.67
             683.73,18.37 693.36,18.23 696.58,20.67
             700.26,23.92 701.65,29.83 695.00,31.00
             695.00,31.00 694.00,23.00 694.00,23.00
             689.34,24.32 686.66,24.32 682.01,23.00
             681.18,27.59 679.86,44.19 682.01,47.85
             684.22,51.57 690.53,52.00 693.26,48.69
             695.03,46.54 694.93,43.61 695.00,41.00
             695.00,41.00 689.00,41.00 689.00,41.00
             689.00,41.00 689.00,36.00 689.00,36.00 Z
           M 712.00,19.00
           C 712.00,19.00 732.00,19.00 732.00,19.00
             728.94,25.94 723.78,24.00 717.00,24.00
             717.00,24.00 717.00,35.00 717.00,35.00
             717.00,35.00 729.00,35.00 729.00,35.00
             727.07,40.51 722.02,39.00 717.00,39.00
             717.00,39.00 717.00,51.00 717.00,51.00
             717.00,51.00 732.00,51.00 732.00,51.00
             732.00,51.00 731.00,55.00 731.00,55.00
             731.00,55.00 712.00,55.00 712.00,55.00
             712.00,55.00 712.00,19.00 712.00,19.00 Z
           M 743.00,19.00
           C 746.09,19.26 747.16,18.84 748.00,22.00
             751.41,24.09 751.75,25.05 752.00,29.00
             752.00,29.00 754.00,33.00 754.00,33.00
             754.00,33.00 763.00,43.00 763.00,43.00
             763.00,43.00 763.00,19.00 763.00,19.00
             763.00,19.00 768.00,19.00 768.00,19.00
             768.00,19.00 768.00,55.00 768.00,55.00
             768.00,55.00 762.83,53.71 762.83,53.71
             762.83,53.71 758.48,47.00 758.48,47.00
             758.48,47.00 749.00,31.00 749.00,31.00
             749.00,31.00 749.00,55.00 749.00,55.00
             749.00,55.00 743.00,55.00 743.00,55.00
             743.00,55.00 743.00,19.00 743.00,19.00 Z
           M 782.00,21.00
           C 782.00,21.00 787.10,19.40 787.10,19.40
             792.78,18.08 801.67,18.28 803.79,25.02
             804.04,26.69 803.98,29.23 803.79,31.00
             797.36,29.83 800.43,27.42 796.69,25.02
             794.50,23.62 788.72,24.00 786.00,24.00
             786.00,24.00 785.00,49.99 785.00,49.99
             788.10,50.56 793.80,51.84 796.57,49.99
             800.44,47.38 797.29,44.16 804.00,43.00
             804.00,43.00 803.00,53.00 803.00,53.00
             803.00,53.00 801.00,55.00 801.00,55.00
             796.41,54.61 788.08,55.89 784.30,53.71
             779.81,51.12 780.01,46.50 780.00,42.00
             779.98,34.09 779.17,28.54 782.00,21.00 Z
           M 816.00,19.00
           C 816.00,19.00 836.00,19.00 836.00,19.00
             834.79,26.03 826.76,24.00 821.00,24.00
             821.00,24.00 821.00,35.00 821.00,35.00
             821.00,35.00 834.00,35.00 834.00,35.00
             834.00,35.00 834.00,39.00 834.00,39.00
             834.00,39.00 821.00,39.00 821.00,39.00
             821.00,39.00 821.00,51.00 821.00,51.00
             821.00,51.00 836.00,51.00 836.00,51.00
             836.00,51.00 836.00,55.00 836.00,55.00
             836.00,55.00 816.00,55.00 816.00,55.00
             816.00,55.00 816.00,19.00 816.00,19.00 Z
           M 222.00,23.00
           C 222.00,23.00 221.00,23.00 221.00,23.00
             221.00,23.00 222.00,24.00 222.00,24.00
             222.00,24.00 222.00,23.00 222.00,23.00 Z
           M 233.00,23.00
           C 233.00,23.00 222.00,24.00 222.00,24.00
             222.00,24.00 222.00,37.00 222.00,37.00
             227.80,37.00 229.56,37.52 235.00,35.00
             235.00,35.00 233.00,23.00 233.00,23.00 Z
           M 411.00,25.00
           C 411.00,25.00 410.00,25.00 410.00,25.00
             410.00,25.00 411.00,26.00 411.00,26.00
             411.00,26.00 411.00,25.00 411.00,25.00 Z
           M 414.00,25.00
           C 414.00,25.00 413.00,25.00 413.00,25.00
             413.00,25.00 414.00,26.00 414.00,26.00
             414.00,26.00 414.00,25.00 414.00,25.00 Z
           M 194.00,26.00
           C 194.00,26.00 192.00,26.00 192.00,26.00
             192.00,26.00 187.00,43.00 187.00,43.00
             187.00,43.00 198.00,43.00 198.00,43.00
             198.00,43.00 194.00,26.00 194.00,26.00 Z
           M 413.00,26.00
           C 413.00,26.00 411.00,26.00 411.00,26.00
             410.08,28.83 405.69,39.96 407.84,42.01
             409.27,43.37 414.97,43.00 417.00,43.00
             417.00,43.00 413.00,26.00 413.00,26.00 Z
           M 191.00,27.00
           C 191.00,27.00 190.00,27.00 190.00,27.00
             190.00,27.00 191.00,28.00 191.00,28.00
             191.00,28.00 191.00,27.00 191.00,27.00 Z
           M 96.00,28.00
           C 96.00,28.00 95.00,28.00 95.00,28.00
             95.00,28.00 96.00,29.00 96.00,29.00
             96.00,29.00 96.00,28.00 96.00,28.00 Z
           M 94.00,30.00
           C 94.00,30.00 93.00,30.00 93.00,30.00
             93.00,30.00 94.00,31.00 94.00,31.00
             94.00,31.00 94.00,30.00 94.00,30.00 Z
           M 407.00,43.00
           C 407.00,43.00 406.00,43.00 406.00,43.00
             406.00,43.00 407.00,44.00 407.00,44.00
             407.00,44.00 407.00,43.00 407.00,43.00 Z
           M 418.00,43.00
           C 418.00,43.00 417.00,43.00 417.00,43.00
             417.00,43.00 418.00,44.00 418.00,44.00
             418.00,44.00 418.00,43.00 418.00,43.00 Z
           M 352.00,49.00
           C 352.00,49.00 351.00,49.00 351.00,49.00
             351.00,49.00 352.00,50.00 352.00,50.00
             352.00,50.00 352.00,49.00 352.00,49.00 Z
           M 366.00,49.00
           C 366.00,49.00 365.00,49.00 365.00,49.00
             365.00,49.00 366.00,50.00 366.00,50.00
             366.00,50.00 366.00,49.00 366.00,49.00 Z
           M 782.00,49.00
           C 782.00,49.00 781.00,49.00 781.00,49.00
             781.00,49.00 782.00,50.00 782.00,50.00
             782.00,50.00 782.00,49.00 782.00,49.00 Z
           M 114.00,49.00
           C 114.00,49.00 116.00,49.00 116.00,49.00
             116.00,49.00 116.00,66.00 116.00,66.00
             116.00,66.00 98.00,65.00 98.00,65.00
             98.00,65.00 109.00,57.00 109.00,57.00
             109.00,57.00 108.00,55.00 108.00,55.00
             108.00,55.00 111.00,55.00 111.00,55.00
             111.00,55.00 114.00,49.00 114.00,49.00 Z" />
</svg>
