<?xml version="1.0" encoding="UTF-8" standalone="no"?>
<!DOCTYPE svg PUBLIC "-//W3C//DTD SVG 20010904//EN"
              "http://www.w3.org/TR/2001/REC-SVG-20010904/DTD/svg10.dtd">

<svg xmlns="http://www.w3.org/2000/svg"
     width="423.28mm" height="71.2522mm"
     viewBox="0 0 1200 202">
  <path id="Sélection"
        fill="black" stroke="black" stroke-width="1"
        d="M 180.00,116.00
           C 180.00,116.00 180.00,107.00 180.00,107.00
             180.06,97.78 183.71,96.29 190.00,90.00
             190.00,90.00 211.00,69.00 211.00,69.00
             216.82,63.19 217.62,61.06 226.00,61.00
             226.00,61.00 239.00,61.00 239.00,61.00
             239.00,61.00 202.00,100.00 202.00,100.00
             202.00,100.00 240.00,100.00 240.00,100.00
             240.00,100.00 240.00,137.00 240.00,137.00
             240.00,137.00 220.00,137.00 220.00,137.00
             220.00,137.00 220.00,116.00 220.00,116.00
             220.00,116.00 180.00,116.00 180.00,116.00 Z
           M 249.00,61.00
           C 249.00,61.00 289.00,61.00 289.00,61.00
             289.00,61.00 289.00,75.00 289.00,75.00
             288.78,86.45 276.16,91.19 270.60,100.00
             268.08,103.98 269.00,114.98 269.00,120.00
             269.00,120.00 249.00,120.00 249.00,120.00
             249.00,120.00 250.02,100.00 250.02,100.00
             250.02,100.00 267.98,80.00 267.98,80.00
             267.98,80.00 269.00,62.00 269.00,62.00
             269.00,62.00 249.00,79.00 249.00,79.00
             249.00,79.00 249.00,61.00 249.00,61.00 Z
           M 352.00,109.00
           C 352.00,109.00 358.22,84.00 358.22,84.00
             358.22,84.00 362.56,74.02 362.56,74.02
             362.56,74.02 370.00,73.00 370.00,73.00
             370.00,73.00 380.00,109.00 380.00,109.00
             380.00,109.00 374.00,109.00 374.00,109.00
             372.11,99.13 367.27,101.00 359.00,101.00
             358.12,106.54 357.92,108.53 352.00,109.00 Z
           M 389.00,73.00
           C 393.75,73.00 405.19,72.09 408.79,74.74
             414.83,79.17 414.42,91.40 407.00,94.00
             407.00,94.00 413.00,109.00 413.00,109.00
             399.38,108.56 409.23,96.50 395.00,96.00
             395.00,96.00 395.00,109.00 395.00,109.00
             395.00,109.00 389.00,109.00 389.00,109.00
             389.00,109.00 389.00,73.00 389.00,73.00 Z
           M 421.00,73.00
           C 421.00,73.00 444.00,73.00 444.00,73.00
             442.96,78.88 440.26,77.98 435.00,78.00
             435.00,78.00 435.00,109.00 435.00,109.00
             435.00,109.00 430.00,109.00 430.00,109.00
             430.00,109.00 430.00,78.00 430.00,78.00
             424.74,77.98 422.04,78.88 421.00,73.00 Z
           M 453.00,73.00
           C 453.00,73.00 459.00,73.00 459.00,73.00
             459.00,73.00 459.00,109.00 459.00,109.00
             459.00,109.00 453.00,109.00 453.00,109.00
             453.00,109.00 453.00,73.00 453.00,73.00 Z
           M 472.00,73.00
           C 472.00,73.00 491.00,73.00 491.00,73.00
             489.76,80.05 482.93,78.00 477.00,78.00
             477.00,78.00 477.00,89.00 477.00,89.00
             477.00,89.00 489.00,89.00 489.00,89.00
             489.00,89.00 489.00,94.00 489.00,94.00
             489.00,94.00 477.00,94.00 477.00,94.00
             477.00,94.00 477.00,109.00 477.00,109.00
             477.00,109.00 472.00,109.00 472.00,109.00
             472.00,109.00 472.00,73.00 472.00,73.00 Z
           M 502.00,73.00
           C 502.00,73.00 507.00,73.00 507.00,73.00
             507.00,73.00 507.00,109.00 507.00,109.00
             507.00,109.00 502.00,109.00 502.00,109.00
             502.00,109.00 502.00,73.00 502.00,73.00 Z
           M 544.00,97.00
           C 543.99,100.43 544.34,104.04 541.69,106.63
             538.35,110.02 524.85,110.09 521.61,106.63
             518.96,103.70 519.99,97.78 520.00,94.00
             520.01,89.77 519.09,78.51 521.74,75.47
             524.96,71.87 538.20,72.06 541.57,75.47
             544.20,78.06 543.97,81.58 544.00,85.00
             534.46,84.20 539.92,76.74 530.02,78.15
             527.90,78.45 526.49,79.10 525.60,81.15
             524.88,82.79 525.00,86.15 525.00,88.00
             524.99,93.70 523.19,106.79 532.98,104.67
             539.87,103.17 534.88,97.76 544.00,97.00 Z
           M 555.00,73.00
           C 555.00,73.00 561.00,73.00 561.00,73.00
             561.00,73.00 561.00,109.00 561.00,109.00
             561.00,109.00 555.00,109.00 555.00,109.00
             555.00,109.00 555.00,73.00 555.00,73.00 Z
           M 571.00,109.00
           C 571.00,109.00 578.42,81.00 578.42,81.00
             579.55,77.08 579.99,73.13 584.98,73.11
             589.79,73.08 590.46,77.20 591.58,81.00
             591.58,81.00 599.00,109.00 599.00,109.00
             588.80,108.15 595.19,101.04 585.00,101.04
             574.81,101.04 581.20,108.15 571.00,109.00 Z
           M 609.00,73.00
           C 609.00,73.00 614.00,73.00 614.00,73.00
             614.00,73.00 614.00,97.00 614.00,97.00
             614.05,99.52 613.95,102.40 616.31,103.98
             618.53,105.45 626.10,105.00 629.00,105.00
             629.00,105.00 629.00,109.00 629.00,109.00
             629.00,109.00 609.00,109.00 609.00,109.00
             609.00,109.00 609.00,73.00 609.00,73.00 Z
           M 656.00,73.00
           C 656.00,73.00 661.00,73.00 661.00,73.00
             661.00,73.00 661.00,109.00 661.00,109.00
             661.00,109.00 656.00,109.00 656.00,109.00
             656.00,109.00 656.00,73.00 656.00,73.00 Z
           M 674.00,73.00
           C 674.00,73.00 678.79,74.02 678.79,74.02
             678.79,74.02 694.00,97.00 694.00,97.00
             694.00,97.00 694.00,73.00 694.00,73.00
             694.00,73.00 699.00,73.00 699.00,73.00
             699.00,73.00 699.00,109.00 699.00,109.00
             699.00,109.00 693.39,107.40 693.39,107.40
             693.39,107.40 680.00,85.00 680.00,85.00
             680.00,85.00 680.00,109.00 680.00,109.00
             680.00,109.00 674.00,109.00 674.00,109.00
             674.00,109.00 674.00,73.00 674.00,73.00 Z
           M 709.00,73.00
           C 709.00,73.00 732.00,73.00 732.00,73.00
             730.96,78.88 728.26,77.98 723.00,78.00
             723.00,78.00 723.00,109.00 723.00,109.00
             723.00,109.00 718.00,109.00 718.00,109.00
             718.00,109.00 718.00,78.00 718.00,78.00
             712.74,77.98 710.04,78.88 709.00,73.00 Z
           M 741.00,73.00
           C 741.00,73.00 761.00,73.00 761.00,73.00
             760.79,74.22 760.84,75.34 759.98,76.40
             758.03,78.82 749.11,78.00 746.00,78.00
             746.01,89.89 747.40,89.00 759.00,89.00
             757.79,95.89 751.87,94.00 746.00,94.00
             746.00,96.36 745.72,100.73 747.02,102.69
             749.20,105.96 757.38,105.00 761.00,105.00
             761.00,105.00 761.00,109.00 761.00,109.00
             761.00,109.00 741.00,109.00 741.00,109.00
             741.00,109.00 741.00,73.00 741.00,73.00 Z
           M 772.00,73.00
           C 773.77,73.15 775.74,73.04 776.98,74.60
             778.23,76.19 778.00,80.01 778.00,82.00
             778.01,85.85 777.32,100.14 779.02,102.69
             782.60,108.06 790.26,101.17 793.00,109.00
             793.00,109.00 772.00,109.00 772.00,109.00
             772.00,109.00 772.00,73.00 772.00,73.00 Z
           M 802.00,73.00
           C 802.00,73.00 807.00,73.00 807.00,73.00
             807.00,73.00 807.00,97.00 807.00,97.00
             807.05,99.52 806.95,102.40 809.31,103.98
             811.53,105.45 819.10,105.00 822.00,105.00
             822.00,105.00 822.00,109.00 822.00,109.00
             822.00,109.00 802.00,109.00 802.00,109.00
             802.00,109.00 802.00,73.00 802.00,73.00 Z
           M 831.00,73.00
           C 831.00,73.00 837.00,73.00 837.00,73.00
             837.00,73.00 837.00,109.00 837.00,109.00
             837.00,109.00 831.00,109.00 831.00,109.00
             831.00,109.00 831.00,73.00 831.00,73.00 Z
           M 873.00,90.00
           C 873.00,94.71 873.82,103.11 870.49,106.56
             867.31,110.09 853.86,110.07 850.82,106.56
             848.72,103.91 849.00,99.13 849.00,96.00
             848.99,90.88 847.82,79.04 851.43,75.43
             854.84,72.02 867.13,71.94 870.49,75.43
             872.95,77.99 872.92,81.69 873.00,85.00
             873.00,85.00 868.00,85.00 868.00,85.00
             866.44,75.50 857.88,77.53 856.02,80.31
             854.48,82.63 854.99,91.85 855.00,95.00
             855.00,97.16 854.78,100.76 856.02,102.63
             858.17,105.69 863.87,105.55 866.15,102.63
             867.84,100.55 867.87,97.58 868.00,95.00
             863.21,94.83 861.88,95.03 861.00,90.00
             861.00,90.00 873.00,90.00 873.00,90.00 Z
           M 885.00,73.00
           C 885.00,73.00 905.00,73.00 905.00,73.00
             903.79,80.03 895.76,78.00 890.00,78.00
             890.00,78.00 890.00,89.00 890.00,89.00
             890.00,89.00 903.00,89.00 903.00,89.00
             901.79,95.89 895.87,94.00 890.00,94.00
             890.00,96.36 889.72,100.73 891.02,102.69
             893.20,105.96 901.38,105.00 905.00,105.00
             905.00,105.00 905.00,109.00 905.00,109.00
             905.00,109.00 885.00,109.00 885.00,109.00
             885.00,109.00 885.00,73.00 885.00,73.00 Z
           M 916.00,73.00
           C 916.00,73.00 921.61,74.60 921.61,74.60
             921.61,74.60 935.00,97.00 935.00,97.00
             935.00,97.00 935.00,80.00 935.00,80.00
             935.00,80.00 936.02,74.60 936.02,74.60
             936.02,74.60 941.00,73.00 941.00,73.00
             941.00,73.00 941.00,109.00 941.00,109.00
             941.00,109.00 935.63,108.01 935.63,108.01
             935.63,108.01 931.16,101.00 931.16,101.00
             931.16,101.00 922.00,85.00 922.00,85.00
             922.00,85.00 922.00,109.00 922.00,109.00
             922.00,109.00 916.00,109.00 916.00,109.00
             916.00,109.00 916.00,73.00 916.00,73.00 Z
           M 977.00,97.00
           C 977.00,99.96 977.40,104.31 975.40,106.69
             972.45,110.19 958.56,109.91 955.43,106.69
             951.84,102.98 952.91,89.33 953.00,84.00
             953.18,73.62 957.96,72.89 967.00,73.00
             969.84,73.04 972.95,73.01 975.13,75.15
             977.52,77.48 977.00,81.89 977.00,85.00
             977.00,85.00 972.00,85.00 972.00,85.00
             971.20,75.39 962.42,77.78 960.60,79.60
             958.68,81.52 959.01,85.46 959.00,88.00
             958.99,91.67 958.28,99.94 960.60,102.69
             963.23,105.81 971.19,107.03 972.00,97.00
             972.00,97.00 977.00,97.00 977.00,97.00 Z
           M 989.00,73.00
           C 989.00,73.00 1009.00,73.00 1009.00,73.00
             1008.79,74.22 1008.84,75.34 1007.98,76.40
             1006.03,78.82 997.11,78.00 994.00,78.00
             994.01,89.89 995.40,89.00 1007.00,89.00
             1005.79,95.89 999.87,94.00 994.00,94.00
             994.00,96.36 993.72,100.73 995.02,102.69
             997.20,105.96 1005.38,105.00 1009.00,105.00
             1009.00,105.00 1009.00,109.00 1009.00,109.00
             1009.00,109.00 989.00,109.00 989.00,109.00
             989.00,109.00 989.00,73.00 989.00,73.00 Z
           M 395.00,91.00
           C 397.47,91.00 402.58,91.35 404.57,89.98
             407.67,87.85 407.67,81.15 404.57,79.02
             402.58,77.65 397.47,78.00 395.00,78.00
             395.00,78.00 395.00,91.00 395.00,91.00 Z
           M 367.00,80.00
           C 367.00,80.00 365.00,80.00 365.00,80.00
             365.00,80.00 361.00,97.00 361.00,97.00
             361.00,97.00 371.00,97.00 371.00,97.00
             371.00,97.00 367.00,80.00 367.00,80.00 Z
           M 586.00,80.00
           C 586.00,80.00 584.00,80.00 584.00,80.00
             584.00,80.00 580.00,97.00 580.00,97.00
             580.00,97.00 590.00,97.00 590.00,97.00
             590.00,97.00 586.00,80.00 586.00,80.00 Z
           M 288.00,102.00
           C 288.00,102.00 289.00,120.00 289.00,120.00
             289.00,120.00 270.00,120.00 270.00,120.00
             270.00,120.00 288.00,102.00 288.00,102.00 Z" />
</svg>
